<svg width="64" height="64" viewBox="0 0 64 64" fill="none" xmlns="http://www.w3.org/2000/svg">
<path d="M47.1579 4C47.1579 1.79086 48.9488 0 51.1579 0H60C62.2091 0 64 1.79086 64 4V12.8421C64 15.0512 62.2091 16.8421 60 16.8421H51.1579C48.9488 16.8421 47.1579 15.0512 47.1579 12.8421V4Z" fill="black"/>
<path d="M47.1579 27.579C47.1579 25.3698 48.9488 23.579 51.1579 23.579H60C62.2091 23.579 64 25.3698 64 27.579V36.4211C64 38.6302 62.2091 40.4211 60 40.4211H51.1579C48.9488 40.4211 47.1579 38.6302 47.1579 36.4211V27.579Z" fill="black"/>
<path d="M47.1579 51.1579C47.1579 48.9488 48.9488 47.1579 51.1579 47.1579H60C62.2091 47.1579 64 48.9488 64 51.1579V60C64 62.2091 62.2091 64 60 64H51.1579C48.9488 64 47.1579 62.2091 47.1579 60V51.1579Z" fill="black"/>
<path d="M23.579 4C23.579 1.79086 25.3698 0 27.579 0H36.421C38.6302 0 40.421 1.79086 40.421 4V12.8421C40.421 15.0512 38.6302 16.8421 36.421 16.8421H27.579C25.3698 16.8421 23.579 15.0512 23.579 12.8421V4Z" fill="black"/>
<path d="M23.579 27.579C23.579 25.3698 25.3698 23.579 27.579 23.579H36.421C38.6302 23.579 40.421 25.3698 40.421 27.579V36.4211C40.421 38.6302 38.6302 40.4211 36.421 40.4211H27.579C25.3698 40.4211 23.579 38.6302 23.579 36.4211V27.579Z" fill="black"/>
<path d="M23.579 51.1579C23.579 48.9488 25.3698 47.1579 27.579 47.1579H36.421C38.6302 47.1579 40.421 48.9488 40.421 51.1579V60C40.421 62.2091 38.6302 64 36.421 64H27.579C25.3698 64 23.579 62.2091 23.579 60V51.1579Z" fill="black"/>
<path d="M0 4C0 1.79086 1.79086 0 3.99999 0H12.8421C15.0512 0 16.8421 1.79086 16.8421 4V12.8421C16.8421 15.0512 15.0512 16.8421 12.8421 16.8421H3.99999C1.79086 16.8421 0 15.0512 0 12.8421V4Z" fill="black"/>
<path d="M0 27.579C0 25.3698 1.79086 23.579 3.99999 23.579H12.8421C15.0512 23.579 16.8421 25.3698 16.8421 27.579V36.4211C16.8421 38.6302 15.0512 40.4211 12.8421 40.4211H3.99999C1.79086 40.4211 0 38.6302 0 36.4211V27.579Z" fill="black"/>
<path d="M0 51.1579C0 48.9488 1.79086 47.1579 3.99999 47.1579H12.8421C15.0512 47.1579 16.8421 48.9488 16.8421 51.1579V60C16.8421 62.2091 15.0512 64 12.8421 64H3.99999C1.79086 64 0 62.2091 0 60V51.1579Z" fill="black"/>
</svg>
