<svg width="64" height="64" viewBox="0 0 64 64" fill="none" xmlns="http://www.w3.org/2000/svg">
<path style="fill:#008733"  d="M22.1144 63.715C21.6279 63.248 21.5333 62.3712 21.903 61.7566L40.2859 31.1993C40.6556 30.5848 41.3496 30.4652 41.836 30.9323C42.3225 31.3993 42.4171 32.2761 42.0474 32.8907L23.6645 63.448C23.2948 64.0625 22.6008 64.1821 22.1144 63.715Z" fill="black"/>
<path style="fill:#008733"  d="M22.1619 0.285036C22.6483 -0.182068 23.3423 -0.0625835 23.7121 0.551912L42.097 31.1073C42.4667 31.7218 42.3721 32.5986 41.8857 33.0657C41.3993 33.5328 40.7053 33.4133 40.3355 32.7988L21.9506 2.24344C21.5809 1.62895 21.6755 0.75214 22.1619 0.285036Z" fill="black"/>
</svg>
