<svg width="64" height="64" viewBox="0 0 64 64" fill="none" xmlns="http://www.w3.org/2000/svg">
<path style="fill:#008733" d="M26.7664 46.933C26.1139 46.9414 25.4587 46.6989 24.9608 46.2053L14.601 35.936C13.6219 34.9655 13.6219 33.3919 14.601 32.4213C15.5801 31.4508 17.1675 31.4508 18.1466 32.4213L26.7696 40.9691L46.9201 20.9946C47.8992 20.024 49.4866 20.024 50.4657 20.9946C51.4448 21.9651 51.4448 23.5387 50.4657 24.5092L28.5784 46.2054C28.0789 46.7006 27.421 46.9431 26.7664 46.933Z" fill="black"/>
<path style="fill:#008733" fill-rule="evenodd" clip-rule="evenodd" d="M32 64C49.6731 64 64 49.6731 64 32C64 14.3269 49.6731 0 32 0C14.3269 0 0 14.3269 0 32C0 49.6731 14.3269 64 32 64ZM57.6 32C57.6 46.1385 46.1385 57.6 32 57.6C17.8615 57.6 6.4 46.1385 6.4 32C6.4 17.8615 17.8615 6.4 32 6.4C46.1385 6.4 57.6 17.8615 57.6 32Z" fill="black"/>
</svg>
