<svg width="64" height="64" viewBox="0 0 64 64" fill="none" xmlns="http://www.w3.org/2000/svg">
<path style="fill:#008733"  d="M41.8856 63.715C42.3721 63.248 42.4667 62.3712 42.097 61.7566L23.7141 31.1993C23.3445 30.5848 22.6504 30.4652 22.164 30.9323C21.6776 31.3993 21.5829 32.2761 21.9526 32.8907L40.3355 63.448C40.7052 64.0625 41.3992 64.1821 41.8856 63.715Z" fill="black"/>
<path style="fill:#008733"  d="M41.8381 0.285036C41.3517 -0.182068 40.6577 -0.0625835 40.2879 0.551912L21.903 31.1073C21.5333 31.7218 21.6279 32.5986 22.1143 33.0657C22.6007 33.5328 23.2947 33.4133 23.6645 32.7988L42.0494 2.24344C42.4191 1.62895 42.3245 0.75214 41.8381 0.285036Z" fill="black"/>
</svg>
