<svg width="64" height="64" viewBox="0 0 64 64" fill="none" xmlns="http://www.w3.org/2000/svg">
<path d="M19.1419 53.7171C17.4634 52.0065 17.4634 49.2331 19.1419 47.5225L56.663 9.28294C58.3414 7.57235 61.0627 7.57235 62.7412 9.28294C64.4196 10.9935 64.4196 13.7669 62.7412 15.4775L25.2201 53.7171C23.5416 55.4277 20.8203 55.4277 19.1419 53.7171Z" fill="black"/>
<path d="M1.25884 29.4226C2.93728 27.712 5.65859 27.712 7.33703 29.4226L25.0967 47.5223C26.7751 49.2329 26.7751 52.0063 25.0967 53.7169C23.4182 55.4275 20.6969 55.4275 19.0185 53.7169L1.25884 35.6172C-0.419611 33.9066 -0.419613 31.1332 1.25884 29.4226Z" fill="black"/>
</svg>
