<svg width="64" height="64" viewBox="0 0 64 64" fill="none" xmlns="http://www.w3.org/2000/svg">
<path d="M45.7404 40.2516H42.8496L41.825 39.2636C45.4111 35.092 47.57 29.6764 47.57 23.785C47.57 10.6484 36.9217 0 23.785 0C10.6484 0 0 10.6484 0 23.785C0 36.9217 10.6484 47.57 23.785 47.57C29.6764 47.57 35.092 45.4111 39.2636 41.825L40.2516 42.8496V45.7404L58.5477 64L64 58.5477L45.7404 40.2516ZM23.785 40.2516C14.6735 40.2516 7.31847 32.8965 7.31847 23.785C7.31847 14.6735 14.6735 7.31847 23.785 7.31847C32.8965 7.31847 40.2516 14.6735 40.2516 23.785C40.2516 32.8965 32.8965 40.2516 23.785 40.2516Z" fill="black"/>
</svg>
