<svg width="64" height="64" viewBox="0 0 64 64" fill="none" xmlns="http://www.w3.org/2000/svg">
<path style="fill:#008733" d="M55.7499 25.2392L34.6507 4.03162C32.4696 1.83912 28.9201 1.839 26.7387 4.03162C24.7777 6.00249 24.6089 9.00836 26.0569 11.1547L26.0276 11.3024C24.5064 18.948 20.8031 25.9035 15.3176 31.417L5.64002 41.1443C3.45351 43.3422 3.45314 46.8992 5.64002 49.0971L10.9146 54.3988C13.101 56.5966 16.6401 56.5967 18.8267 54.3988L20.1454 53.0733L29.3762 62.3516C31.5627 64.5494 35.1015 64.5495 37.2882 62.3516C39.4696 60.1591 39.4696 56.5914 37.2882 54.3989L33.3321 50.4226L34.6508 49.0971C36.8373 46.8994 36.8376 43.3424 34.6508 41.1445L33.7547 40.2436C38.1632 37.1412 43.1698 34.9813 48.5164 33.9065L48.6652 33.8766C50.8481 35.358 53.8316 35.1198 55.7499 33.1917C57.9309 30.9993 57.931 27.4318 55.7499 25.2392ZM16.1894 51.7479C15.4606 52.4803 14.2807 52.4804 13.552 51.7478L8.27733 46.4461C7.54846 45.7133 7.54846 44.5278 8.27733 43.7952L17.508 34.517L25.4201 42.4697C24.517 43.3774 17.1148 50.8177 16.1894 51.7479ZM34.6507 57.0497C35.3777 57.7804 35.3777 58.9697 34.6507 59.7006C33.9237 60.4313 32.7404 60.4313 32.0134 59.7006L22.7826 50.4223L25.4201 47.7714L34.6507 57.0497ZM28.0574 45.1206C28.618 44.5571 29.4572 43.6939 30.7816 42.5569L32.0134 43.7952C32.7423 44.5278 32.7423 45.7133 32.0134 46.4461L30.6947 47.7716L28.0574 45.1206ZM28.1366 39.8986L20.0658 31.7863C24.391 26.7665 27.4883 20.8408 29.1454 14.4034L45.4307 30.7723C39.0261 32.4378 33.1309 35.5511 28.1366 39.8986ZM53.1122 30.5407C52.3833 31.2732 51.2037 31.2732 50.4748 30.5407L29.376 9.33336C28.6471 8.60061 28.6471 7.41512 29.376 6.68249C30.1048 5.94987 31.2845 5.94987 32.0134 6.68249L53.1122 27.8897C53.8392 28.6206 53.8392 29.8097 53.1122 30.5407Z" fill="black"/>
<path style="fill:#008733" d="M18.8266 41.1442C18.0985 40.4122 16.9175 40.4122 16.1893 41.1442L13.552 43.7951C12.8237 44.5271 12.8237 45.7139 13.552 46.4459C14.2801 47.1779 15.4611 47.1779 16.1893 46.4459L18.8266 43.7951C19.5548 43.0631 19.5548 41.8762 18.8266 41.1442Z" fill="black"/>
<path style="fill:#008733" d="M43.2159 0C42.186 0 41.351 0.839249 41.351 1.8745V5.62349C41.351 6.65874 42.186 7.49799 43.2159 7.49799C44.2459 7.49799 45.0808 6.65874 45.0808 5.62349V1.8745C45.0808 0.839249 44.2459 0 43.2159 0Z" fill="black"/>
<path style="fill:#008733" d="M58.1351 14.9957H54.4053C53.3753 14.9957 52.5404 15.835 52.5404 16.8702C52.5404 17.9055 53.3753 18.7447 54.4053 18.7447H58.1351C59.165 18.7447 60 17.9055 60 16.8702C60 15.835 59.1649 14.9957 58.1351 14.9957Z" fill="black"/>
<path style="fill:#008733" d="M55.724 4.29787C54.9959 3.56587 53.8149 3.56587 53.0867 4.29787L49.3568 8.04687C48.6286 8.77886 48.6286 9.96574 49.3568 10.6977C50.085 11.4297 51.2659 11.4299 51.9942 10.6977L55.724 6.94874C56.4522 6.21674 56.4522 5.02999 55.724 4.29787Z" fill="black"/>
</svg>
