<svg width="64" height="64" viewBox="0 0 64 64" fill="none" xmlns="http://www.w3.org/2000/svg">
<path style="fill:#008733" d="M49.5 25.6L45.505 21.056L26.8333 42.144L19.495 33.888L15.5 38.4L26.8333 51.2L49.5 25.6ZM52.3333 6.4H40.49C39.3 2.688 36.1833 0 32.5 0C28.8167 0 25.7 2.688 24.51 6.4H12.6667C12.27 6.4 11.9017 6.432 11.5333 6.528C10.4283 6.784 9.43667 7.424 8.67167 8.288C8.16167 8.864 7.73667 9.568 7.45333 10.336C7.17 11.072 7 11.904 7 12.8V57.6C7 58.464 7.17 59.328 7.45333 60.096C7.73667 60.864 8.16167 61.536 8.67167 62.144C9.43667 63.008 10.4283 63.648 11.5333 63.904C11.9017 63.968 12.27 64 12.6667 64H52.3333C55.45 64 58 61.12 58 57.6V12.8C58 9.28 55.45 6.4 52.3333 6.4ZM32.5 5.6C33.6617 5.6 34.625 6.688 34.625 8C34.625 9.312 33.6617 10.4 32.5 10.4C31.3383 10.4 30.375 9.312 30.375 8C30.375 6.688 31.3383 5.6 32.5 5.6ZM52.3333 57.6H12.6667V12.8H52.3333V57.6Z" fill="black"/>
</svg>
