<svg width="64" height="64" viewBox="0 0 64 64" fill="none" xmlns="http://www.w3.org/2000/svg">
<path d="M40.6139 32.003L62.1409 10.4699C62.7225 9.90817 63.1864 9.23621 63.5056 8.49324C63.8247 7.75027 63.9927 6.95118 63.9998 6.1426C64.0068 5.33402 63.8527 4.53213 63.5465 3.78373C63.2403 3.03533 62.7882 2.3554 62.2164 1.78363C61.6446 1.21185 60.9647 0.759671 60.2163 0.453476C59.4679 0.147282 58.666 -0.00679645 57.8574 0.000229928C57.0488 0.00725631 56.2497 0.175248 55.5068 0.494402C54.7638 0.813557 54.0918 1.27748 53.5301 1.85911L31.997 23.3861L10.4699 1.85911C9.90817 1.27748 9.23621 0.813557 8.49324 0.494402C7.75027 0.175248 6.95118 0.00725631 6.1426 0.000229928C5.33402 -0.00679645 4.53213 0.147282 3.78373 0.453476C3.03533 0.759671 2.3554 1.21185 1.78363 1.78363C1.21185 2.3554 0.759671 3.03533 0.453476 3.78373C0.147282 4.53213 -0.00679645 5.33402 0.000229928 6.1426C0.00725631 6.95118 0.175248 7.75027 0.494402 8.49324C0.813557 9.23621 1.27748 9.90817 1.85911 10.4699L23.3861 31.997L1.85911 53.5301C1.27748 54.0918 0.813557 54.7638 0.494402 55.5068C0.175248 56.2497 0.00725631 57.0488 0.000229928 57.8574C-0.00679645 58.666 0.147282 59.4679 0.453476 60.2163C0.759671 60.9647 1.21185 61.6446 1.78363 62.2164C2.3554 62.7882 3.03533 63.2403 3.78373 63.5465C4.53213 63.8527 5.33402 64.0068 6.1426 63.9998C6.95118 63.9927 7.75027 63.8247 8.49324 63.5056C9.23621 63.1864 9.90817 62.7225 10.4699 62.1409L31.997 40.6139L53.5301 62.1409C54.0918 62.7225 54.7638 63.1864 55.5068 63.5056C56.2497 63.8247 57.0488 63.9927 57.8574 63.9998C58.666 64.0068 59.4679 63.8527 60.2163 63.5465C60.9647 63.2403 61.6446 62.7882 62.2164 62.2164C62.7882 61.6446 63.2403 60.9647 63.5465 60.2163C63.8527 59.4679 64.0068 58.666 63.9998 57.8574C63.9927 57.0488 63.8247 56.2497 63.5056 55.5068C63.1864 54.7638 62.7225 54.0918 62.1409 53.5301L40.6139 31.997V32.003Z" fill="black"/>
</svg>
