<svg width="64" height="64" viewBox="0 0 64 64" fill="none" xmlns="http://www.w3.org/2000/svg">
<path d="M16.9573 44.8H38.0171V51.2H16.9573V44.8ZM16.9573 32H47.0428V38.4H16.9573V32ZM16.9573 19.2H47.0428V25.6H16.9573V19.2ZM53.0598 6.4H40.4841C39.2205 2.688 35.9111 0 32 0C28.0889 0 24.7795 2.688 23.5159 6.4H10.9402C10.519 6.4 10.1279 6.432 9.73677 6.528C8.56344 6.784 7.51045 7.424 6.69814 8.288C6.1566 8.864 5.70532 9.568 5.40446 10.336C5.10361 11.072 4.9231 11.904 4.9231 12.8V57.6C4.9231 58.464 5.10361 59.328 5.40446 60.096C5.70532 60.864 6.1566 61.536 6.69814 62.144C7.51045 63.008 8.56344 63.648 9.73677 63.904C10.1279 63.968 10.519 64 10.9402 64H53.0598C56.3693 64 59.0769 61.12 59.0769 57.6V12.8C59.0769 9.28 56.3693 6.4 53.0598 6.4ZM32 5.6C33.2335 5.6 34.2564 6.688 34.2564 8C34.2564 9.312 33.2335 10.4 32 10.4C30.7665 10.4 29.7436 9.312 29.7436 8C29.7436 6.688 30.7665 5.6 32 5.6ZM53.0598 57.6H10.9402V12.8H53.0598V57.6Z" fill="black"/>
</svg>
