<svg width="64" height="64" viewBox="0 0 64 64" fill="none" xmlns="http://www.w3.org/2000/svg">
<path style="fill:#008733" d="M33.7776 14.2224H28.4443V35.5557L45.1554 45.8667L47.9998 41.6001L33.7776 33.0668V14.2224ZM31.9999 0.000280138C25.6709 0.000280138 19.4841 1.87704 14.2217 5.39323C8.95935 8.90942 4.85785 13.9071 2.43586 19.7543C0.0138649 25.6015 -0.619839 32.0356 0.614883 38.243C1.8496 44.4504 4.89729 50.1522 9.37255 54.6274C13.8478 59.1027 19.5496 62.1504 25.757 63.3851C31.9644 64.6198 38.3985 63.9861 44.2457 61.5641C50.0929 59.1421 55.0906 55.0406 58.6068 49.7783C62.123 44.5159 63.9997 38.3291 63.9997 32.0001C64.0174 27.7929 63.2017 23.6238 61.5998 19.7335C59.9979 15.8431 57.6415 12.3085 54.6665 9.33349C51.6915 6.35851 48.1569 4.00209 44.2665 2.40019C40.3762 0.798298 36.2071 -0.0173604 31.9999 0.000280138ZM31.9999 56.8889C27.0773 56.8889 22.2653 55.4292 18.1724 52.6944C14.0795 49.9596 10.8894 46.0725 9.00564 41.5247C7.12187 36.9768 6.62898 31.9725 7.58932 27.1446C8.54966 22.3166 10.9201 17.8819 14.4008 14.4011C17.8816 10.9204 22.3164 8.54993 27.1443 7.58959C31.9723 6.62925 36.9766 7.12213 41.5244 9.0059C46.0722 10.8897 49.9593 14.0797 52.6941 18.1727C55.4289 22.2656 56.8886 27.0776 56.8886 32.0001C56.9089 35.2742 56.279 38.5198 55.0354 41.5486C53.7919 44.5774 51.9593 47.3292 49.6441 49.6444C47.329 51.9596 44.5772 53.7921 41.5484 55.0357C38.5195 56.2793 35.274 56.9092 31.9999 56.8889Z" fill="black"/>
</svg>
