<svg width="64" height="64" viewBox="0 0 64 64" fill="none" xmlns="http://www.w3.org/2000/svg">
<path d="M48.741 21.9528L45.977 24.7166C47.8991 28.2475 48.4845 32.3527 47.6259 36.2801C46.7674 40.2075 44.5224 43.6941 41.3022 46.1012C38.0821 48.5082 34.1024 49.6745 30.0923 49.3863C26.0821 49.0982 22.3101 47.375 19.4672 44.5323C16.6243 41.6896 14.9009 37.9179 14.6127 33.9081C14.3246 29.8983 15.4909 25.919 17.8982 22.6991C20.3054 19.4792 23.7923 17.2344 27.72 16.376C31.6478 15.5175 35.7534 16.1029 39.2846 18.0248L42.0486 15.261C37.7664 12.6194 32.663 11.6425 27.7079 12.5159C22.7527 13.3892 18.2909 16.052 15.17 19.9983C12.0491 23.9447 10.4865 28.8998 10.7789 33.9224C11.0714 38.945 13.1986 43.6853 16.7564 47.2428C20.3142 50.8004 25.0549 52.9274 30.078 53.2198C35.101 53.5122 40.0565 51.9497 44.0033 48.8291C47.95 45.7085 50.6129 41.2471 51.4863 36.2923C52.3598 31.3376 51.3828 26.2346 48.741 21.9528ZM41.0674 29.6378L37.7455 32.9451C37.7 34.2024 37.2885 35.419 36.5614 36.4457C35.8343 37.4724 34.8232 38.2645 33.6523 38.7248C32.4814 39.1852 31.2016 39.2937 29.9699 39.0372C28.7382 38.7806 27.6082 38.1701 26.7185 37.2805C25.8289 36.3909 25.2183 35.261 24.9617 34.0294C24.7051 32.7978 24.8136 31.518 25.274 30.3473C25.7344 29.1765 26.5266 28.1655 27.5534 27.4385C28.5802 26.7114 29.7969 26.2999 31.0542 26.2545L34.3761 22.9472C33.3785 22.6266 32.3369 22.4637 31.2891 22.4643C29.2611 22.4643 27.2787 23.0656 25.5925 24.1922C23.9063 25.3188 22.5921 26.92 21.8161 28.7934C21.04 30.6668 20.8369 32.7283 21.2326 34.7171C21.6282 36.7059 22.6048 38.5328 24.0387 39.9666C25.4727 41.4005 27.2997 42.377 29.2887 42.7726C31.2777 43.1682 33.3393 42.9651 35.2129 42.1891C37.0865 41.4131 38.6879 40.099 39.8146 38.413C40.9412 36.727 41.5426 34.7447 41.5426 32.7169C41.5458 31.6721 41.3855 30.6331 41.0674 29.6378ZM58.064 16.6523L55.2999 19.4161C58.5053 25.2038 59.5118 31.9546 58.1341 38.4255C56.7564 44.8964 53.0874 50.6519 47.8024 54.6324C42.5174 58.6128 35.9722 60.5503 29.3719 60.0881C22.7716 59.626 16.5604 56.7952 11.8818 52.117C7.20322 47.4389 4.37222 41.2282 3.90999 34.6284C3.44776 28.0287 5.38541 21.4841 9.36622 16.1996C13.347 10.915 19.103 7.24625 25.5745 5.8687C32.046 4.49116 38.7973 5.49755 44.5856 8.70261L47.3518 5.93881C40.8097 2.01211 33.0572 0.6134 25.5551 2.00624C18.0531 3.39907 11.3195 7.48728 6.6231 13.5005C1.92674 19.5138 -0.408092 27.0368 0.0585541 34.6522C0.5252 42.2675 3.7611 49.4493 9.15653 54.8443C14.5519 60.2392 21.7343 63.4748 29.3503 63.9415C36.9663 64.4081 44.4901 62.0734 50.5038 57.3775C56.5176 52.6815 60.6061 45.9485 61.9991 38.4471C63.3921 30.9457 61.9932 23.1938 58.0662 16.6523H58.064ZM53.9626 16.7327L50.3485 16.3315L32.5448 34.1325C32.1883 34.4798 31.7093 34.6728 31.2115 34.6696C30.7137 34.6663 30.2372 34.4672 29.8852 34.1152C29.5332 33.7632 29.334 33.2868 29.3308 32.789C29.3275 32.2913 29.5205 31.8123 29.8679 31.4558L47.6704 13.6547L47.2691 10.041L57.3088 0L58.6472 5.35342L64 6.69508L53.9626 16.7327Z" fill="black"/>
</svg>
