<svg width="64" height="64" viewBox="0 0 64 64" fill="none" xmlns="http://www.w3.org/2000/svg">
<path d="M22.4 31.2C20.192 31.2 18.4 32.992 18.4 35.2C18.4 37.408 20.192 39.2 22.4 39.2C24.608 39.2 26.4 37.408 26.4 35.2C26.4 32.992 24.608 31.2 22.4 31.2ZM41.6 31.2C39.392 31.2 37.6 32.992 37.6 35.2C37.6 37.408 39.392 39.2 41.6 39.2C43.808 39.2 45.6 37.408 45.6 35.2C45.6 32.992 43.808 31.2 41.6 31.2ZM32 0C14.336 0 0 14.336 0 32C0 49.664 14.336 64 32 64C49.664 64 64 49.664 64 32C64 14.336 49.664 0 32 0ZM32 57.6C17.888 57.6 6.4 46.112 6.4 32C6.4 31.072 6.464 30.144 6.56 29.248C14.112 25.888 20.096 19.712 23.232 12.064C29.024 20.256 38.56 25.6 49.344 25.6C51.84 25.6 54.24 25.312 56.544 24.768C57.216 27.04 57.6 29.472 57.6 32C57.6 46.112 46.112 57.6 32 57.6Z" fill="black"/>
</svg>
