<svg width="65" height="64" viewBox="0 0 65 64" fill="none" xmlns="http://www.w3.org/2000/svg">
<path d="M60.0832 6.16483C58.5389 4.53024 56.6927 3.2311 54.6536 2.34405C52.6145 1.457 50.4238 1 48.2107 1C45.9975 1 43.8068 1.457 41.7677 2.34405C39.7286 3.2311 37.8824 4.53024 36.3381 6.16483L3.68767 40.4574C1.32318 42.9605 0 46.3167 0 49.811C0 53.3053 1.32318 56.6614 3.68767 59.1646C5.59828 61.1762 8.1 62.4804 10.8038 62.8743C13.5075 63.2683 16.2617 62.7299 18.6381 61.3429C19.1552 61.3207 19.6454 61.0988 20.0112 60.7213L52.6617 26.4337C54.2381 24.7656 55.1203 22.5285 55.1203 20.1994C55.1203 17.8702 54.2381 15.6332 52.6617 13.9651C51.8896 13.1493 50.9671 12.501 49.9485 12.0584C48.9299 11.6158 47.8356 11.3878 46.7302 11.3878C45.6249 11.3878 44.5306 11.6158 43.512 12.0584C42.4933 12.501 41.5709 13.1493 40.7988 13.9651L14.0766 42.0225C13.6831 42.4397 13.4629 42.9988 13.4629 43.5808C13.4629 44.1629 13.6831 44.7219 14.0766 45.1392C14.2697 45.3432 14.5005 45.5053 14.7553 45.616C15.0101 45.7266 15.2838 45.7837 15.5602 45.7837C15.8367 45.7837 16.1104 45.7266 16.3652 45.616C16.62 45.5053 16.8508 45.3432 17.0439 45.1392L43.758 17.0818C44.1438 16.6728 44.6051 16.3477 45.1148 16.1257C45.6244 15.9037 46.1721 15.7893 46.7254 15.7893C47.2786 15.7893 47.8263 15.9037 48.336 16.1257C48.8457 16.3477 49.307 16.6728 49.6927 17.0818C50.4816 17.9153 50.9232 19.0339 50.9232 20.1986C50.9232 21.3632 50.4816 22.4818 49.6927 23.3153L18.5243 56.0512C17.7523 56.8669 16.8298 57.5152 15.8112 57.9578C14.7925 58.4004 13.6983 58.6284 12.5929 58.6284C11.4875 58.6284 10.3933 58.4004 9.37466 57.9578C8.35601 57.5152 7.43353 56.8669 6.6615 56.0512C5.08509 54.383 4.20287 52.146 4.20287 49.8168C4.20287 47.4877 5.08509 45.2506 6.6615 43.5825L39.3103 9.28157C40.4685 8.05517 41.8532 7.08041 43.3827 6.41484C44.9121 5.74927 46.5554 5.40636 48.2155 5.40636C49.8756 5.40636 51.5189 5.74927 53.0484 6.41484C54.5779 7.08041 55.9626 8.05517 57.1208 9.28157C59.4853 11.7847 60.8085 15.1409 60.8085 18.6352C60.8085 22.1294 59.4853 25.4856 57.1208 27.9887L27.4393 59.1562C27.0458 59.5734 26.8257 60.1325 26.8257 60.7146C26.8257 61.2966 27.0458 61.8557 27.4393 62.2729C27.6325 62.4769 27.8632 62.639 28.118 62.7497C28.3728 62.8604 28.6465 62.9174 28.923 62.9174C29.1995 62.9174 29.4732 62.8604 29.728 62.7497C29.9828 62.639 30.2135 62.4769 30.4067 62.2729L60.0832 31.1038C63.2358 27.7671 65 23.2928 65 18.6343C65 13.9759 63.2358 9.50157 60.0832 6.16483Z" fill="black"/>
</svg>
