<svg width="64" height="64" viewBox="0 0 64 64" fill="none" xmlns="http://www.w3.org/2000/svg">
<path d="M30.6884 62.1259L1.88804 33.3264C1.28812 32.7354 0.812056 32.0307 0.487868 31.2535C0.16368 30.4763 -0.00213508 29.6424 2.07545e-05 28.8003V6.40017C2.07545e-05 4.70279 0.67392 3.07436 1.87415 1.87413C3.07438 0.673899 4.70281 0 6.40019 0H28.8004C30.498 0.00246596 32.1258 0.675658 33.3299 1.8724L62.1137 30.6545C62.7122 31.2506 63.1867 31.9586 63.5104 32.7387C63.8341 33.5188 64.0006 34.355 64 35.1997C63.9962 36.896 63.3231 38.5231 62.1276 39.7266L39.7283 62.1259C39.1337 62.7203 38.4271 63.1924 37.6502 63.5139C36.8732 63.8354 36.0405 64.0004 35.1997 64C34.3612 64.0003 33.5313 63.8346 32.757 63.513C31.9826 63.1915 31.28 62.72 30.6884 62.1259ZM36.987 45.4149L39.4505 42.9583L36.8108 40.3108L40.3524 36.7786L38.0156 34.4358L34.4748 37.9679L32.6563 36.1424L36.9922 31.8151C37.9774 30.873 38.7026 29.6919 39.0972 28.3872C39.454 27.1672 39.4462 25.8703 39.0755 24.6545C38.6624 23.3316 37.9213 22.1346 36.921 21.1753C35.9596 20.174 34.7639 19.4277 33.4418 19.0043C32.227 18.6325 30.9304 18.6195 29.7083 18.967C28.4018 19.353 27.2179 20.0719 26.2734 21.0538L20.7396 26.5764L19.4722 27.842L27.8611 36.2491L25.7708 38.3359L28.1103 40.6788L30.1971 38.592L32.02 40.4158L29.9306 42.5035L32.2665 44.8464L34.3576 42.7587L36.987 45.4149ZM6.40019 11.1997C6.40019 12.4727 6.9054 13.6936 7.80557 14.5938C8.70575 15.4939 9.92663 16 11.1997 16C12.4727 16 13.6936 15.4939 14.5938 14.5938C15.4939 13.6936 16 12.4727 16 11.1997C16 9.92661 15.4939 8.70573 14.5938 7.80556C13.6936 6.90538 12.4727 6.40017 11.1997 6.40017C9.92663 6.40017 8.70575 6.90538 7.80557 7.80556C6.9054 8.70573 6.40019 9.92661 6.40019 11.1997ZM24.2066 27.7491L28.6788 23.2908C29.1662 22.7803 29.7915 22.422 30.4783 22.2595C31.1523 22.1095 31.8554 22.1567 32.5035 22.395C33.2399 22.6681 33.9044 23.1041 34.4479 23.671C35.0107 24.2121 35.4419 24.8747 35.7083 25.6085C35.9465 26.255 35.9908 26.9574 35.8351 27.6285C35.6659 28.3127 35.3059 28.9343 34.7969 29.4219L33.908 30.3108L30.3273 33.8811L24.2066 27.7491Z" fill="black"/>
</svg>
