<svg width="64" height="64" viewBox="0 0 64 64" fill="none" xmlns="http://www.w3.org/2000/svg">
<path d="M0.799927 31.701C1.8665 30.7233 3.59575 30.7233 4.66232 31.701L23.9743 49.4038C25.0408 50.3815 25.0408 51.9665 23.9743 52.9442C22.9077 53.9218 21.1784 53.9219 20.1119 52.9442L0.799927 35.2416C-0.266643 34.2639 -0.266642 32.6787 0.799927 31.701Z" fill="black"/>
<path d="M20.367 52.9409C19.3615 51.9588 19.3615 50.3666 20.367 49.3846L59.6049 11.0591C60.6104 10.0771 62.2405 10.0771 63.2459 11.0591C64.2514 12.0412 64.2514 13.6334 63.2459 14.6154L24.008 52.9409C23.0025 53.9229 21.3724 53.9229 20.367 52.9409Z" fill="black"/>
</svg>
