<svg width="64" height="64" viewBox="0 0 64 64" fill="none" xmlns="http://www.w3.org/2000/svg">
<path d="M53.778 6.4H49.41V0H45.7021V6.4H18.298V0H14.5901V6.4H10.2221C9.4001 6.40599 8.58735 6.57649 7.83054 6.90173C7.07373 7.22697 6.38778 7.70053 5.81207 8.29522C5.23637 8.88991 4.78226 9.594 4.47581 10.3671C4.16937 11.1401 4.01664 11.9669 4.0264 12.8L4.00018 57.6C3.9939 58.4343 4.14987 59.2617 4.45919 60.035C4.7685 60.8082 5.2251 61.512 5.80289 62.1064C6.38069 62.7007 7.06836 63.1738 7.82662 63.4988C8.58489 63.8237 9.39888 63.994 10.2221 64H53.778C55.4389 63.9825 57.0255 63.2996 58.1913 62.1004C59.357 60.9013 60.0073 59.2834 59.9999 57.6V12.8C60.0073 11.1166 59.357 9.49869 58.1913 8.29956C57.0255 7.10043 55.4389 6.41753 53.778 6.4ZM56.2908 60.2663H7.70927V16.0411H56.2908V60.2663Z" fill="black"/>
</svg>
