<svg width="64" height="64" viewBox="0 0 64 64" fill="none" xmlns="http://www.w3.org/2000/svg">
<path d="M53.36 41.0133C50.08 41.0133 46.9067 40.48 43.9467 39.52C43.0133 39.2 41.9733 39.44 41.2533 40.16L37.0667 45.4133C29.52 41.8133 22.4533 35.0133 18.6933 27.2L23.8933 22.7733C24.6133 22.0267 24.8267 20.9867 24.5333 20.0533C23.5467 17.0933 23.04 13.92 23.04 10.64C23.04 9.2 21.84 8 20.4 8H11.1733C9.73333 8 8 8.64 8 10.64C8 35.4133 28.6133 56 53.36 56C55.2533 56 56 54.32 56 52.8533V43.6533C56 42.2133 54.8 41.0133 53.36 41.0133Z" fill="black"/>
</svg>
