<svg width="64" height="64" viewBox="0 0 64 64" fill="none" xmlns="http://www.w3.org/2000/svg">
<path style="fill:white" d="M17.3885 48.9556C13.1767 44.1396 14.6944 36.8501 14.764 36.5461L15.1257 34.8618L15.3589 36.5724C16.0537 41.6974 30.0892 54.1482 31.9203 55.7533C33.7807 54.1533 48.0505 41.7072 48.482 36.5872L48.6261 34.8618L49.0729 36.5329C49.1567 36.8419 51.0672 44.1707 46.567 49.0263C46.2989 49.316 32.7351 63.1851 32.1535 63.7796L31.9346 64L17.3885 48.9556ZM17.7506 34.8207C15.4885 32.1011 14.2984 28.6416 14.4068 25.0987C14.3363 21.4963 15.519 17.983 17.7506 15.1628C18.644 14.0411 31.9968 0 31.9968 0C31.9968 0 45.3478 14.0555 46.1272 15.1628C48.3781 17.9805 49.6034 21.4854 49.5999 25.0987C49.6096 28.6813 48.3544 32.1512 46.0576 34.8914C45.1894 36.1268 31.9968 49.4737 31.9968 49.4737C31.9968 49.4737 18.659 35.8717 17.7506 34.8207ZM28.4074 39.0493L31.8708 42.5016L42.325 32.0822C42.9104 31.4845 43.3887 30.7893 43.7388 30.028C43.8628 29.7795 43.9668 29.5241 44.0665 29.2664C44.3031 28.6263 44.4874 27.968 44.6173 27.2977C44.6969 26.9078 44.7562 26.5243 44.8006 26.1562C44.8358 25.9112 44.8603 25.6666 44.8804 25.4359C44.9624 24.4939 44.969 23.5483 44.9004 22.6053L28.4074 39.0493ZM21.581 31.9293L25.0435 35.3816L42.4785 17.9967L39.0151 14.5444L21.581 31.9293ZM21.6354 18C18.4552 21.1697 19.1795 27.3569 19.1795 27.3569L35.5473 11.0345L32.084 7.58224L21.6354 18Z" fill="black"/>
</svg>
